<?xml version="1.0" encoding="UTF-8"?>
<svg width="1200pt" height="1200pt" version="1.1" viewBox="0 0 1200 1200" xmlns="http://www.w3.org/2000/svg">
 <g fill="#0c6efc">
  <path d="m1106.2 562.5c-51.789 0-93.75 33.602-93.75 75v300h-112.5v-637.5h-37.5v-75h-37.5v-225h-37.5v225h-37.5v75h-37.5v525h-75v-337.5l-75-75-75 75v450h-75v-300l-187.5-150v262.5h-75v-412.5l-75-112.5-75 112.5v862.5h1200v-562.5c0-41.398-41.961-75-93.75-75z"/>
  <path d="m1125 543.75c0 10.355-8.3945 18.75-18.75 18.75s-18.75-8.3945-18.75-18.75 8.3945-18.75 18.75-18.75 18.75 8.3945 18.75 18.75"/>
 </g>
</svg>
