<?xml version="1.0" encoding="UTF-8"?>
<svg width="92px" height="89px" viewBox="0 0 92 89" version="1.1" xmlns="http://www.w3.org/2000/svg" xmlns:xlink="http://www.w3.org/1999/xlink">
    <!-- Generator: Sketch 53.2 (72643) - https://sketchapp.com -->
    <title>GettyImages-1149697191 (1)</title>
    <desc>Created with Sketch.</desc>
    <g id="OneCloud" stroke="none" stroke-width="1" fill="none" fill-rule="evenodd">
        <g id="Platform-Features-B" transform="translate(-146.000000, -4828.000000)">
            <g id="GettyImages-1149697191-(1)" transform="translate(146.000000, 4828.000000)">
                <path d="M43.5561,36.595 C40.3197,36.595 37.3948,38.5129 36.106,41.4809 C34.3223,45.586 36.2116,50.376 40.3169,52.16 C41.3475,52.607 42.4333,52.834 43.5455,52.834 C46.782,52.834 49.707,50.917 50.996,47.949 C52.779,43.8433 50.89,39.0525 46.785,37.2694 C45.7547,36.8215 44.6683,36.595 43.5561,36.595 Z M43.5455,56.27 C41.9598,56.27 40.4131,55.947 38.9481,55.311 C33.1056,52.773 30.4166,45.955 32.9546,40.1121 C34.7892,35.8883 38.9504,33.1596 43.5561,33.1596 C45.1418,33.1596 46.688,33.4817 48.153,34.118 C53.996,36.6565 56.685,43.4748 54.147,49.317 C52.312,53.541 48.151,56.27 43.5455,56.27 L43.5455,56.27 Z" id="Fill-1" fill="#01207B"></path>
                <path d="M45.6484,67.15 C45.7205,67.15 45.7798,67.092 45.781,67.019 L45.862,62.24 C45.8877,60.732 46.877,59.394 48.326,58.91 C48.804,58.751 49.282,58.563 49.746,58.352 C51.117,57.73 52.775,58.037 53.81,59.107 L57.132,62.544 C57.136,62.544 57.317,62.547 57.32,62.547 L60.907,59.082 C60.96,59.03 60.961,58.946 60.91,58.893 L57.588,55.457 C56.543,54.375 56.295,52.733 56.971,51.369 C57.085,51.14 57.486,50.217 57.573,49.988 C58.099,48.591 59.444,47.652 60.921,47.652 L65.871,47.744 C65.945,47.744 66.004,47.686 66.006,47.614 L66.1,42.6277 C66.101,42.555 66.043,42.494 65.97,42.4924 L61.084,42.3996 C59.579,42.371 58.243,41.3813 57.761,39.9371 C57.596,39.445 57.404,38.9575 57.19,38.4889 C56.559,37.1017 56.862,35.4667 57.945,34.42 L61.384,31.098 C61.429,31.0539 61.431,30.9538 61.387,30.9085 L57.922,27.3266 C57.914,27.3266 57.741,27.3238 57.733,27.3238 L54.297,30.6451 C53.234,31.6729 51.545,31.9267 50.208,31.2619 C49.98,31.1489 49.035,30.7385 48.796,30.6485 C47.372,30.115 46.432,28.7446 46.457,27.2399 L46.54,22.4614 C46.541,22.3882 46.483,22.3272 46.409,22.3261 L41.4252,22.2389 C41.3502,22.2389 41.2909,22.297 41.2898,22.3691 L41.2093,27.1516 C41.1836,28.6568 40.1967,29.9943 38.753,30.4796 C38.2721,30.6418 37.7924,30.8308 37.3277,31.0416 C35.9595,31.665 34.2982,31.3569 33.2621,30.2851 L29.9386,26.8452 L29.7501,26.8412 L26.1643,30.3068 C26.1185,30.351 26.1173,30.45 26.1609,30.4953 L29.4856,33.9363 C30.5313,35.0183 30.7789,36.661 30.1023,38.0248 C29.9889,38.2523 29.5874,39.1761 29.5008,39.407 C28.9751,40.8026 27.6298,41.742 26.1542,41.742 L21.199,41.6481 C21.1241,41.6481 21.0648,41.7068 21.0632,41.7789 L20.9692,46.764 C20.9682,46.838 21.0269,46.898 21.1006,46.9 L25.9876,46.992 C27.4928,47.021 28.8275,48.01 29.3101,49.454 C29.4739,49.945 29.6656,50.432 29.8787,50.9 C30.5111,52.286 30.2086,53.921 29.125,54.969 L25.6867,58.291 C25.6336,58.342 25.632,58.426 25.6834,58.48 L29.1479,62.065 C29.1451,62.064 29.3274,62.068 29.3357,62.068 L29.3363,62.068 L32.7718,58.747 C33.4371,58.104 34.3156,57.749 35.2454,57.749 C35.8018,57.749 36.3604,57.881 36.8613,58.13 C37.0873,58.243 38.0322,58.653 38.2704,58.742 C39.6969,59.277 40.6373,60.647 40.6121,62.152 L40.5294,66.93 C40.5283,66.993 40.5977,67.065 40.6603,67.065 L45.6484,67.15 Z M45.6484,70.586 C45.6389,70.586 45.597,70.585 45.5875,70.585 L40.6021,70.501 C39.6487,70.485 38.7586,70.098 38.096,69.412 C37.4334,68.727 37.0777,67.824 37.0939,66.87 L37.1768,62.093 C37.1778,62.026 37.1175,61.979 37.0654,61.959 C36.773,61.85 35.6156,61.347 35.3338,61.208 L35.1593,61.217 L31.7239,64.538 C30.3534,65.863 28.0017,65.823 26.6771,64.452 L23.2125,60.867 C22.55,60.181 22.1943,59.278 22.2111,58.325 C22.2273,57.372 22.6143,56.482 23.2998,55.82 L26.7374,52.498 C26.7861,52.451 26.776,52.376 26.7531,52.325 C26.4897,51.747 26.2537,51.147 26.0514,50.542 C26.034,50.49 25.9898,50.428 25.9222,50.427 L21.0352,50.334 C19.0682,50.297 17.498,48.667 17.535,46.7 L17.6289,41.7146 C17.6646,39.7839 19.2645,38.2126 21.1951,38.2126 L26.1515,38.3066 C26.2207,38.3066 26.2666,38.2462 26.2861,38.1948 C26.3936,37.9113 26.8867,36.7762 27.0254,36.4966 C27.05,36.4474 27.0623,36.372 27.0153,36.3238 L23.69,32.8823 C23.0274,32.1962 22.6719,31.2938 22.6887,30.341 C22.7049,29.3882 23.0918,28.4985 23.7772,27.8359 L27.3625,24.3709 C28.7348,23.0452 31.0842,23.0876 32.4094,24.4582 L35.733,27.898 C35.7348,27.898 35.9059,27.9137 35.9074,27.9137 C36.4772,27.6548 37.066,27.4228 37.6576,27.2237 C37.7107,27.2053 37.7729,27.1611 37.7739,27.0934 L37.8545,22.311 C37.8874,20.3769 39.4877,18.8029 41.4224,18.8029 L46.469,18.8907 C48.436,18.9253 50.008,20.5536 49.975,22.5201 L49.892,27.2986 C49.891,27.3663 49.952,27.4132 50.004,27.4328 C50.298,27.5435 51.455,28.0457 51.736,28.1854 C51.736,28.1849 51.91,28.1754 51.91,28.1748 L55.346,24.8535 C56.715,23.5294 59.065,23.5674 60.391,24.9379 L63.857,28.5204 C64.52,29.2064 64.876,30.1089 64.86,31.0623 C64.843,32.0162 64.457,32.9063 63.771,33.5689 L60.332,36.8903 C60.284,36.9373 60.293,37.0133 60.317,37.0642 C60.579,37.6412 60.816,38.2412 61.019,38.8479 C61.037,38.9016 61.082,38.9636 61.149,38.9653 L66.034,39.0581 C68,39.0944 69.571,40.7249 69.534,42.692 L69.44,47.678 C69.404,49.609 67.804,51.18 65.873,51.18 L60.922,51.087 C60.853,51.087 60.807,51.148 60.787,51.199 C60.681,51.481 60.188,52.615 60.049,52.895 C60.024,52.946 60.012,53.021 60.059,53.07 L63.38,56.505 C64.043,57.191 64.398,58.093 64.382,59.047 C64.366,60 63.98,60.89 63.294,61.552 L59.708,65.017 C58.336,66.343 55.985,66.301 54.662,64.931 L51.34,61.495 L51.167,61.479 C50.595,61.739 50.005,61.971 49.413,62.169 C49.361,62.186 49.299,62.231 49.297,62.299 L49.216,67.078 C49.183,69.012 47.583,70.585 45.6484,70.586 L45.6484,70.586 Z" id="Fill-2" fill="#FF9800"></path>
                <path d="M37.1391,3.4095 L30.2194,12.2412 C29.6377,12.986 28.5593,13.1221 27.8086,12.5346 C27.0613,11.9497 26.9303,10.87 27.5162,10.1237 L30.0835,6.8454 C14.3615,12.4446 3.4358,27.5456 3.4358,44.618 C3.4358,49.093 4.1674,53.486 5.611,57.677 L2.3619,58.795 C0.7951,54.244 0,49.474 0,44.618 C0,26.191 11.7237,9.8802 28.633,3.7176 L24.2143,3.4995 C23.2666,3.4535 22.5369,2.6476 22.5839,1.6999 C22.6309,0.7521 23.4396,0.0167 24.3835,0.0685 L35.8715,0.6348 C36.5121,0.6661 37.0823,1.0524 37.3493,1.6363 C37.6154,2.2202 37.5352,2.9048 37.1391,3.4095" id="Fill-3" fill="#3780FF"></path>
                <path d="M76.103,73.457 C67.843,82.784 55.965,88.134 43.5149,88.134 C32.7662,88.134 22.3639,84.106 14.4163,76.971 L15.6985,80.854 C15.9958,81.754 15.5068,82.725 14.6061,83.023 C13.7068,83.322 12.7347,82.831 12.4367,81.93 L8.8307,71.009 C8.6293,70.399 8.7848,69.727 9.2337,69.269 C9.6816,68.81 10.3486,68.639 10.9639,68.827 L21.6938,72.105 C22.6005,72.382 23.112,73.342 22.8343,74.249 C22.5575,75.156 21.599,75.666 20.6904,75.39 L16.3156,74.054 C23.6852,80.852 33.4353,84.698 43.5149,84.698 C54.982,84.698 65.923,79.771 73.531,71.179 L76.103,73.457" id="Fill-4" fill="#3780FF"></path>
                <path d="M91.474,53.786 L83.194,61.769 C82.714,62.232 82.033,62.358 81.451,62.159 C80.844,61.955 80.401,61.427 80.304,60.793 L78.607,49.702 C78.464,48.764 79.108,47.888 80.046,47.744 C80.982,47.601 81.859,48.245 82.004,49.183 L82.641,53.353 C83.276,50.503 83.595,47.582 83.595,44.618 C83.595,25.6608 70.137,9.1477 51.595,5.3529 L52.283,1.9865 C72.417,6.1069 87.031,24.0373 87.031,44.618 C87.031,47.92 86.665,51.175 85.94,54.349 L89.09,51.312 C89.773,50.656 90.861,50.673 91.519,51.357 C92.177,52.04 92.158,53.127 91.474,53.786" id="Fill-5" fill="#3780FF"></path>
            </g>
        </g>
    </g>
</svg>